<svg xmlns="http://www.w3.org/2000/svg" viewBox="0 0 64 64" fill="none">
  <!-- Shield shape -->
  <path d="M32 2L6 14v20c0 14 11 24 26 28 15-4 26-14 26-28V14L32 2z" fill="currentColor" opacity="0.15"/>
  <path d="M32 2L6 14v20c0 14 11 24 26 28 15-4 26-14 26-28V14L32 2z" stroke="currentColor" stroke-width="2" fill="none"/>
  <!-- Book/knowledge symbol -->
  <rect x="22" y="22" width="20" height="16" rx="1" stroke="currentColor" stroke-width="1.5" fill="none"/>
  <line x1="32" y1="22" x2="32" y2="38" stroke="currentColor" stroke-width="1.5"/>
  <line x1="25" y1="26" x2="30" y2="26" stroke="currentColor" stroke-width="1"/>
  <line x1="25" y1="29" x2="30" y2="29" stroke="currentColor" stroke-width="1"/>
  <line x1="25" y1="32" x2="30" y2="32" stroke="currentColor" stroke-width="1"/>
  <line x1="34" y1="26" x2="39" y2="26" stroke="currentColor" stroke-width="1"/>
  <line x1="34" y1="29" x2="39" y2="29" stroke="currentColor" stroke-width="1"/>
  <line x1="34" y1="32" x2="39" y2="32" stroke="currentColor" stroke-width="1"/>
  <!-- Torch/flame at top -->
  <ellipse cx="32" cy="16" rx="3" ry="4" fill="currentColor" opacity="0.6"/>
  <ellipse cx="32" cy="15" rx="1.5" ry="2.5" fill="currentColor"/>
</svg>
